<?xml version="1.0" standalone="no"?>
<!DOCTYPE svg PUBLIC "-//W3C//DTD SVG 20010904//EN"
 "http://www.w3.org/TR/2001/REC-SVG-20010904/DTD/svg10.dtd">
<svg version="1.0" xmlns="http://www.w3.org/2000/svg"
 width="800.000000pt" height="800.000000pt" viewBox="0 0 800.000000 800.000000"
 preserveAspectRatio="xMidYMid meet">
<metadata>
Created by potrace 1.11, written by Peter Selinger 2001-2013
</metadata>
<g transform="translate(0.000000,800.000000) scale(0.100000,-0.100000)"
fill="#000000" stroke="none">
<path d="M2059 6708 c5 -13 45 -110 90 -216 173 -407 316 -827 321 -942 1 -19
2 -117 1 -217 l-1 -183 -75 0 c-41 0 -75 -4 -75 -9 0 -5 7 -25 15 -46 26 -62
84 -271 107 -389 23 -111 23 -115 25 -1301 2 -755 -1 -1206 -7 -1233 -6 -23
-11 -67 -13 -97 -2 -46 -4 -53 -14 -39 -8 11 -9 23 -3 34 7 13 6 20 -4 23 -8
3 -16 16 -19 29 -4 20 -4 20 -6 -4 -1 -34 -29 -38 -57 -7 -12 14 -25 18 -41
14 -20 -5 -26 0 -34 25 -9 25 -16 30 -42 30 -20 0 -39 8 -52 23 -11 12 -31 22
-45 22 -18 0 -24 5 -22 18 2 12 -4 17 -23 17 -21 0 -29 7 -38 30 -7 17 -18 30
-27 29 -55 -5 -79 2 -82 23 -2 16 -9 22 -21 20 -12 -2 -21 4 -24 17 -5 18 -13
21 -60 21 -51 0 -54 1 -48 21 10 30 -8 38 -85 40 -52 1 -58 3 -30 8 l35 7 -37
13 c-26 9 -38 19 -38 32 0 14 -7 19 -25 19 -14 0 -29 8 -35 20 -6 12 -21 20
-36 20 -17 0 -28 8 -36 26 -9 19 -18 24 -35 21 -17 -3 -23 0 -23 14 0 15 -8
19 -34 19 -50 0 -66 9 -66 36 0 20 -5 24 -30 24 -16 0 -30 5 -30 10 0 6 -19
11 -42 12 l-43 1 45 7 45 7 -52 1 c-42 2 -53 6 -58 22 -4 13 -15 20 -31 20
-20 0 -24 5 -24 29 0 24 -3 28 -21 24 -13 -4 -27 2 -39 15 -11 11 -27 18 -37
16 -13 -4 -21 4 -30 26 -10 26 -17 31 -40 30 -45 -3 -50 -1 -56 20 -4 16 -14
20 -51 20 -42 0 -46 2 -46 25 0 21 -5 25 -29 25 -23 0 -30 5 -33 23 -3 19 -9
22 -53 23 l-50 2 45 -8 45 -7 -38 -1 c-47 -2 -77 13 -77 38 0 18 -7 20 -55 20
-48 0 -55 3 -55 19 0 11 -4 23 -10 26 -5 3 -10 16 -10 27 0 19 -4 20 -60 15
-57 -6 -60 -6 -72 21 -13 26 -17 27 -83 27 -63 0 -70 2 -70 20 0 16 -8 21 -40
23 -23 2 -47 12 -58 23 -12 12 -31 19 -57 19 l-40 0 0 -1670 0 -1670 2865 0
2865 0 0 30 c0 24 -4 30 -21 30 -23 0 -42 16 -52 43 -4 12 -16 17 -35 15 -33
-2 -52 8 -52 28 0 8 -7 14 -15 14 -8 0 -15 9 -15 19 0 23 -18 37 -43 33 -9 -2
-20 5 -24 15 -3 10 -12 22 -20 26 -7 4 -13 17 -13 27 0 17 -7 20 -51 20 -42 0
-52 3 -56 20 -3 13 -14 20 -29 20 -17 0 -24 6 -24 20 0 21 -38 37 -65 26 -8
-3 -15 -1 -15 5 0 6 -10 8 -22 4 -15 -4 -18 -3 -11 2 10 7 10 13 -2 29 -8 10
-15 27 -15 37 0 12 -8 17 -29 17 -20 0 -30 6 -34 20 -3 14 -14 20 -31 20 -30
0 -46 27 -25 42 10 7 -1 8 -33 4 -43 -5 -50 -3 -64 19 -12 18 -26 25 -57 27
-34 2 -42 7 -42 23 0 14 -8 21 -25 23 -14 2 -35 13 -47 24 -12 11 -26 17 -32
13 -6 -3 -11 -1 -11 4 0 6 -7 11 -15 11 -8 0 -15 7 -15 15 0 11 -11 15 -41 15
-35 0 -40 3 -34 19 6 20 -16 31 -68 31 -15 0 -30 7 -33 15 -4 8 -12 15 -20 15
-9 0 -14 11 -14 30 0 26 -3 30 -29 30 -20 0 -30 6 -34 20 -4 16 -14 20 -54 22
l-48 1 45 7 45 7 -42 1 c-31 2 -43 6 -43 17 0 8 -8 15 -18 15 -11 0 -27 9 -37
20 -13 14 -31 20 -62 20 -39 0 -43 2 -43 25 0 23 -4 25 -41 25 -33 0 -47 6
-67 27 -15 16 -26 35 -27 43 0 10 -12 16 -37 18 -26 2 -41 10 -52 28 -11 16
-26 24 -46 24 -22 0 -29 5 -32 23 -3 18 -8 21 -36 19 -27 -3 -35 1 -39 17 -4
18 -13 21 -54 21 -42 0 -49 3 -49 19 0 12 -9 23 -22 27 -13 3 -31 15 -40 24
-10 10 -25 16 -35 14 -13 -4 -21 3 -30 25 -8 24 -17 31 -37 31 -15 0 -26 6
-26 13 0 18 -47 39 -69 32 -12 -4 -21 3 -29 20 -16 36 -17 35 28 35 28 0 40
-4 40 -14 0 -8 8 -17 18 -21 14 -5 15 -4 5 6 -17 17 -16 29 2 29 8 0 15 -4 15
-9 0 -5 15 -8 33 -8 47 1 138 -21 167 -41 14 -9 31 -17 39 -18 8 -2 18 -9 22
-16 5 -7 9 -10 9 -6 0 10 50 -37 50 -47 0 -5 -11 2 -25 15 -14 13 -28 20 -32
17 -3 -4 -1 -7 6 -7 7 0 9 -5 6 -10 -4 -6 -3 -10 2 -9 20 3 27 -2 13 -11 -12
-8 -11 -10 5 -7 11 1 26 6 32 10 17 11 42 -4 83 -50 l35 -39 63 57 c83 75 198
135 309 159 82 18 131 20 676 20 323 0 587 3 587 7 0 3 -20 67 -44 142 -87
266 -106 408 -106 798 0 392 26 581 120 857 16 50 30 93 30 98 0 8 -1213 12
-1221 3 -3 -2 8 -44 23 -91 78 -241 108 -420 115 -686 l6 -208 -552 0 -551 0
0 605 c0 368 4 605 9 605 42 0 302 -58 411 -91 74 -23 145 -44 158 -46 l22 -5
0 616 c0 339 -4 616 -8 616 -5 0 -48 -14 -98 -30 -125 -43 -263 -77 -384 -95
-56 -8 -104 -14 -105 -13 -1 2 -6 276 -9 611 l-7 607 560 0 561 0 0 -72 c0
-143 -21 -371 -45 -502 -23 -126 -86 -360 -106 -398 -9 -17 16 -18 606 -18
338 0 615 1 615 3 0 2 -11 37 -25 78 -37 108 -82 281 -99 384 -34 202 -46 552
-25 775 17 188 84 484 146 646 4 12 -228 14 -1761 14 l-1766 0 9 -22z m-1756
-3465 c-13 -2 -33 -2 -45 0 -13 2 -3 4 22 4 25 0 35 -2 23 -4z m0 -20 c-13 -2
-33 -2 -45 0 -13 2 -3 4 22 4 25 0 35 -2 23 -4z m240 -120 c-13 -2 -33 -2 -45
0 -13 2 -3 4 22 4 25 0 35 -2 23 -4z m0 -20 c-13 -2 -33 -2 -45 0 -13 2 -3 4
22 4 25 0 35 -2 23 -4z m1205 -640 c-10 -2 -26 -2 -35 0 -10 3 -2 5 17 5 19 0
27 -2 18 -5z m5 -20 c-7 -2 -21 -2 -30 0 -10 3 -4 5 12 5 17 0 24 -2 18 -5z
m661 -379 c-1 -20 -5 -38 -8 -41 -4 -4 -1 64 3 75 5 12 8 -5 5 -34z m946 -533
c0 -5 -9 -7 -20 -4 -11 3 -20 7 -20 9 0 2 9 4 20 4 11 0 20 -4 20 -9z m1023
-608 c-13 -2 -33 -2 -45 0 -13 2 -3 4 22 4 25 0 35 -2 23 -4z m977 -633 c0 -5
-5 -10 -11 -10 -5 0 -7 5 -4 10 3 6 8 10 11 10 2 0 4 -4 4 -10z"/>
<path d="M488 3253 c7 -3 16 -2 19 1 4 3 -2 6 -13 5 -11 0 -14 -3 -6 -6z"/>
<path d="M518 3233 c23 -2 61 -2 85 0 23 2 4 4 -43 4 -47 0 -66 -2 -42 -4z"/>
<path d="M537 3213 c18 -2 50 -2 70 0 21 2 7 4 -32 4 -38 0 -55 -2 -38 -4z"/>
<path d="M648 3163 c6 -2 18 -2 25 0 6 3 1 5 -13 5 -14 0 -19 -2 -12 -5z"/>
<path d="M658 3093 c12 -2 32 -2 45 0 12 2 2 4 -23 4 -25 0 -35 -2 -22 -4z"/>
<path d="M970 2990 c-12 -8 -11 -10 8 -10 12 0 22 5 22 10 0 13 -11 13 -30 0z"/>
<path d="M1218 2773 c12 -2 32 -2 45 0 12 2 2 4 -23 4 -25 0 -35 -2 -22 -4z"/>
<path d="M1378 2693 c12 -2 32 -2 45 0 12 2 2 4 -23 4 -25 0 -35 -2 -22 -4z"/>
<path d="M1378 2673 c12 -2 32 -2 45 0 12 2 2 4 -23 4 -25 0 -35 -2 -22 -4z"/>
<path d="M1663 2583 c9 -2 23 -2 30 0 6 3 -1 5 -18 5 -16 0 -22 -2 -12 -5z"/>
<path d="M2425 2140 c-3 -5 -1 -10 4 -10 6 0 11 5 11 10 0 6 -2 10 -4 10 -3 0
-8 -4 -11 -10z"/>
<path d="M3530 1480 c8 -5 20 -10 25 -10 6 0 3 5 -5 10 -8 5 -19 10 -25 10 -5
0 -3 -5 5 -10z"/>
<path d="M3576 1456 c5 -14 59 -15 72 -1 4 4 -3 4 -15 1 -13 -4 -23 -4 -23 1
0 5 -9 9 -19 10 -12 1 -18 -3 -15 -11z"/>
<path d="M3835 1333 c-5 -12 -9 -14 -12 -5 -5 14 -43 17 -43 3 0 -5 16 -12 35
-15 20 -4 33 -11 30 -17 -12 -18 2 -9 24 18 15 16 18 24 9 20 -9 -3 -20 -1
-25 4 -7 7 -13 4 -18 -8z m25 -13 c0 -5 -2 -10 -4 -10 -3 0 -8 5 -11 10 -3 6
-1 10 4 10 6 0 11 -4 11 -10z"/>
<path d="M3874 1302 c-10 -15 -8 -18 7 -19 12 -1 17 5 16 18 -2 24 -9 24 -23
1z"/>
<path d="M4050 1310 c0 -5 5 -10 11 -10 5 0 7 5 4 10 -3 6 -8 10 -11 10 -2 0
-4 -4 -4 -10z"/>
<path d="M4480 930 c0 -5 5 -10 11 -10 5 0 7 5 4 10 -3 6 -8 10 -11 10 -2 0
-4 -4 -4 -10z"/>
<path d="M5010 610 c0 -5 6 -10 14 -10 8 0 18 5 21 10 3 6 -3 10 -14 10 -12 0
-21 -4 -21 -10z"/>
</g>
</svg>
